<svg xmlns="http://www.w3.org/2000/svg" xml:space="preserve" width="545" height="71" style="shape-rendering:geometricPrecision;text-rendering:geometricPrecision;image-rendering:optimizeQuality;fill-rule:evenodd;clip-rule:evenodd" viewBox="0 0 490 64">
    <defs>
        <style>
            .fil0,.fil1{fill:#000;fill-rule:nonzero}.fil1{fill:#69f}
        </style>
    </defs>
    <g id="Warstwa_x0020_1">
        <path class="fil0" d="M31 0c6 0 12 1 16 4 3 3 5 7 5 12s-1 10-4 13c-3 4-8 6-13 8 1 1 1 3 2 5l3 6c1 3 2 5 3 8 1 2 2 5 3 7h-9c-1-2-2-5-3-7s-2-5-2-7l-3-6c-1-2-2-3-3-5H15L9 63H0L15 1c2 0 5-1 8-1h8zm-1 7c-5 0-7 0-8 1l-6 23h13c3-1 5-1 7-2s4-3 5-5c2-2 2-4 2-7 0-4-1-6-3-7-3-2-6-3-10-3z"/>
        <path id="1" class="fil0" d="M65 38h9c3-1 6-1 8-2s4-2 5-3c1-2 2-3 2-6l-1-1c0-1 0-2-1-2 0-1-1-1-2-1-1-1-2-1-3-1-2 0-4 1-6 2-2 0-4 2-5 3-2 2-3 3-4 5s-2 4-2 6zm8 26c-3 0-5 0-7-1-3-1-5-2-6-4-2-1-3-3-3-5-1-2-1-4-1-7 0-4 0-8 1-12 2-4 3-7 6-10 2-3 5-5 8-7 4-2 8-3 12-3 2 0 4 0 6 1s3 2 4 3c2 1 2 2 3 3 0 2 1 3 1 5 0 3-1 5-2 7s-2 3-4 5c-2 1-3 2-6 3-2 1-4 1-7 2h-7c-3 1-5 1-7 1v6c1 1 1 2 2 3s2 1 4 2c1 1 3 1 6 1 1 0 2 0 4-1h3c1-1 2-1 3-1 1-1 2-1 2-1l1 7c-2 1-3 1-6 2s-6 1-10 1z"/>
        <path id="2" class="fil0" d="M116 64c-5 0-8-1-10-3s-3-5-3-8 0-6 1-10l10-40 9-1-4 14h16l-2 7h-16l-5 21c0 3-1 5-1 7s1 4 2 5c1 0 3 1 5 1s4 0 5-1c2-1 3-1 4-2l1 7c-1 1-3 2-5 2-2 1-4 1-7 1z"/>
        <path id="3" class="fil0" d="M162 15h2c1 0 2 0 3 1h2c1 0 1 0 2 1l-3 7c-1-1-2-1-4-1-1 0-3-1-4-1-2 0-3 0-4 1h-3l-10 40h-8l11-45c2-1 5-2 7-2 3-1 6-1 9-1z"/>
        <path id="4" class="fil0" d="M200 63c-1 0-1-1-1-2s-1-1-1-2c-1 1-3 2-5 3s-5 2-8 2-5 0-7-1-4-2-5-4c-1-1-2-3-2-5-1-2-1-4-1-7 0-4 0-8 2-11 1-4 3-8 6-11s6-5 10-7 9-3 14-3c2 0 4 0 6 1 2 0 4 1 5 2l-6 28c-1 1-1 2-1 4 0 1-1 2-1 4 0 1 1 2 1 4 0 1 1 3 1 4l-7 1zm-14-6c3 0 5-1 7-2s3-2 4-3 1-2 1-4v-3l6-22c-1 0-1 0-2-1h-2c-3 0-6 1-9 2-3 2-5 3-7 6-2 2-3 4-4 7s-2 6-2 9v4c1 1 1 3 2 4 0 1 1 1 2 2s3 1 4 1z"/>
        <path id="5" class="fil0" d="M219 46c0-4 0-8 2-12 1-3 3-7 5-10 2-2 5-5 9-6 3-2 7-3 12-3h6c1 1 3 1 5 2l-4 7c0-1-2-1-3-1-1-1-3-1-5-1-3 0-5 1-8 2-2 2-4 3-6 5-1 2-3 5-4 8 0 3-1 5-1 8 0 2 0 3 1 5 0 1 1 2 1 3 1 1 2 2 4 3 1 1 3 1 5 1 1 0 2 0 4-1h3c1-1 2-1 3-1 0-1 1-1 1-1l1 7c-1 1-3 1-5 2-3 1-5 1-8 1s-6 0-8-1-4-2-6-4c-1-1-2-3-3-6-1-2-1-4-1-7z"/>
        <path id="6" class="fil0" d="M273 64c-4 0-8-1-10-3s-3-5-3-8 1-6 1-10l10-40 9-1-4 14h16l-2 7h-15l-5 21c-1 3-1 5-1 7s0 4 1 5c1 0 3 1 6 1 1 0 3 0 5-1 1-1 3-1 4-2v7c-1 1-2 2-4 2-3 1-5 1-8 1z"/>
        <path id="7" class="fil0" d="M310 64c-5 0-9-1-12-4s-4-7-4-12c0-4 0-7 1-11s3-8 5-11 5-6 8-8c4-2 8-3 13-3s9 1 11 4c3 3 5 7 5 12 0 4-1 8-2 11-1 4-2 8-5 11-2 3-5 6-8 8s-8 3-12 3zm1-7c3 0 5-1 7-2l6-6c1-3 2-5 3-8s1-6 1-9 0-5-2-7c-1-2-3-3-7-3-2 0-5 1-7 2-2 2-4 4-5 6-2 3-3 6-4 8 0 3-1 6-1 9s1 5 2 7c2 2 4 3 7 3z"/>
        <path id="8" class="fil0" d="M368 15h3c1 0 2 0 2 1h3c1 0 1 0 1 1l-2 7c-1-1-3-1-4-1-2 0-3-1-5-1-1 0-2 0-3 1h-4l-9 40h-8l10-45c3-1 5-2 8-2 3-1 6-1 8-1z"/>
        <path id="9" class="fil1" d="M406 7c-5 0-8 0-9 1l-11 48h8c5 0 9-1 13-2 4-2 7-4 9-7 3-3 5-6 7-10 1-4 2-8 2-13s-2-9-5-12-8-5-14-5zm0-7c9 0 16 2 21 7 4 4 7 10 7 17 0 5-1 10-3 15-1 5-4 9-7 13-4 3-8 6-13 8-6 2-12 4-19 4-3 0-6-1-9-1-2 0-5 0-7-1l14-61c3 0 5-1 8-1h8z"/>
        <path id="10" class="fil1" d="M454 64c-1 0-3 0-4-1h-8c-2-1-3-1-4-1l14-60c3-1 6-1 9-2h8c3 0 6 0 8 1 3 0 5 1 7 2s3 3 4 5c1 1 2 4 2 6 0 4-1 7-3 10-3 2-6 5-9 6 2 1 4 2 6 4 1 2 2 5 2 8 0 4-1 7-2 10-2 3-4 5-7 7s-6 3-10 3c-4 1-9 2-13 2zm-1-30-5 22h15c3 0 5-1 7-2s4-2 5-4c2-2 2-4 2-7s-1-6-3-7-5-2-10-2h-11zm2-7h8c2 0 4 0 6-1 3 0 4 0 6-1s3-2 4-4c1-1 2-3 2-6s-1-5-3-6c-3-1-6-2-11-2h-4c-2 0-3 1-3 1l-5 19z"/>
    </g>
</svg>
