<svg xmlns="http://www.w3.org/2000/svg" xml:space="preserve" width="547" height="73" style="shape-rendering:geometricPrecision;text-rendering:geometricPrecision;image-rendering:optimizeQuality;fill-rule:evenodd;clip-rule:evenodd" viewBox="0 0 488 65">
    <defs>
        <style>
            .fil1,.fil2{fill:#69f;fill-rule:nonzero}.fil1{fill:#fff}
        </style>
    </defs>
    <g id="Warstwa_x0020_1">
        <path style="fill:#000" d="M0 0h488.325v65.296H0z"/>
        <path class="fil1" d="M32 1c6 0 12 1 15 4 4 3 6 7 6 12s-1 9-4 13c-3 3-8 6-13 8 0 1 1 2 2 4s2 4 3 7c1 2 2 5 3 7 1 3 2 5 3 7h-9l-3-6c-1-3-2-5-3-7 0-2-1-4-2-6s-2-4-3-5H16l-6 24H1L16 2c2 0 5-1 8-1h8zm-1 7c-5 0-7 0-8 1l-6 23h6c2 0 5 0 7-1 3 0 5-1 7-2s4-2 5-4c2-2 2-4 2-7 0-4-1-6-4-8-2-1-5-2-9-2z"/>
        <path id="1" class="fil1" d="M66 39c3 0 6 0 9-1 3 0 5-1 7-1 3-1 4-2 5-4 2-1 2-3 2-5v-2l-1-1-2-2h-4c-2 0-4 0-6 1-1 1-3 2-4 4-2 1-3 3-4 5s-2 4-2 6zm8 26c-3 0-6-1-8-2s-4-2-5-3c-2-2-3-4-4-6 0-2-1-4-1-6 0-4 1-8 2-12s3-7 6-10c2-3 5-6 8-7 3-2 7-3 11-3 3 0 5 0 7 1 1 0 3 1 4 2s2 3 2 4c1 1 1 3 1 4 0 3 0 6-1 8l-4 4c-2 2-4 3-6 3-2 1-5 2-7 2-3 1-5 1-7 1h-7c-1 1-1 1-1 2 0 2 1 3 1 4s1 2 2 3l3 3h10c1 0 3 0 4-1 1 0 2 0 3-1 1 0 1 0 1-1l1 7c-1 1-3 2-6 2-2 1-5 2-9 2z"/>
        <path id="2" class="fil1" d="M116 65c-4 0-7-1-9-3-3-2-4-5-4-9 0-2 1-5 2-9l9-40 9-1-4 14h16l-2 7h-15l-5 20c-1 3-1 6-1 8s0 3 1 4 3 1 6 1c1 0 3 0 5-1 1 0 3-1 4-1v7c-1 1-2 1-4 2-2 0-5 1-8 1z"/>
        <path id="3" class="fil1" d="M162 16h5c1 1 1 1 2 1h2l-3 8c-1-1-2-1-4-2h-8c-1 1-2 1-3 1l-10 39h-8l11-44c2-1 5-2 8-2 2-1 5-1 8-1z"/>
        <path id="4" class="fil1" d="M200 64c-1-1-1-1-1-2-1-1-1-2-1-3-1 1-3 3-5 4-3 1-5 2-8 2s-5-1-7-2-4-2-5-3c-1-2-2-3-2-5-1-2-1-5-1-7 0-4 0-8 2-12 1-4 3-7 6-10 2-3 6-5 10-7s9-3 14-3c2 0 4 0 6 1 2 0 4 0 5 1l-7 28v4c-1 2-1 3-1 4 0 2 0 3 1 4 0 2 0 3 1 5l-7 1zm-14-6c3 0 5-1 7-2 1-1 3-2 4-4 0-1 0-2 1-3v-3l6-23h-4c-3 0-6 1-9 2s-5 3-7 5-3 5-4 8-2 6-2 9v4c1 1 1 2 2 3 0 1 1 2 2 3 1 0 3 1 4 1z"/>
        <path id="5" class="fil1" d="M218 47c0-4 1-8 2-12 2-4 3-7 6-10 2-3 5-5 8-7 4-1 8-2 12-2h6c2 0 3 1 5 2l-3 7c-1-1-2-1-3-2h-5c-3 0-6 1-8 2-3 1-5 3-6 5-2 2-3 5-4 7-1 3-1 6-1 9v4c1 2 1 3 2 4s2 2 3 2c2 1 4 1 6 1h3c1 0 2 0 3-1 1 0 2 0 3-1 1 0 1 0 2-1l1 7c-2 1-3 2-6 3-2 0-5 1-8 1s-5-1-7-2c-3-1-4-2-6-3-1-2-3-4-3-6-1-2-2-5-2-7z"/>
        <path id="6" class="fil1" d="M273 65c-5 0-8-1-10-3s-3-5-3-9c0-2 0-5 1-9l9-40 9-1-3 14h15l-1 7h-16l-5 20c-1 3-1 6-1 8s0 3 1 4c2 1 3 1 6 1 2 0 3 0 5-1 2 0 3-1 4-1v7c-1 1-2 1-4 2-2 0-5 1-7 1z"/>
        <path id="7" class="fil1" d="M309 65c-5 0-9-2-12-5s-4-7-4-12c0-3 1-7 2-11 1-3 2-7 4-10s5-6 9-8c3-2 7-3 12-3s9 1 11 4c3 3 4 7 4 12 0 4 0 7-1 11s-3 7-5 10c-2 4-5 6-8 8-3 3-8 4-12 4zm1-7c3 0 5-1 7-3 2-1 4-3 6-6 1-2 2-5 3-8s1-5 1-8 0-6-2-7c-1-2-3-3-7-3-2 0-5 1-7 2-2 2-4 4-5 6-2 3-3 5-3 8-1 3-2 6-2 9s1 5 2 7c2 2 4 3 7 3z"/>
        <path id="8" class="fil1" d="M367 16h5c1 1 2 1 2 1h2l-2 8c-2-1-3-1-4-2h-9c-1 1-2 1-3 1l-9 39h-9l11-44c3-1 5-2 8-2 3-1 5-1 8-1z"/>
        <path id="9" class="fil2" d="M404 8c-5 0-7 0-8 1l-12 47c1 0 2 0 3 1h5c5 0 9-1 13-3 4-1 7-3 10-6 2-3 4-6 6-10 1-4 2-9 2-13 0-5-2-9-5-12s-7-5-14-5zm1-7c9 0 16 2 20 6 5 5 7 11 7 18 0 5-1 10-2 15-2 4-5 9-8 12-3 4-8 7-13 9s-11 3-19 3h-8c-3-1-5-1-8-2l15-60c2 0 5-1 8-1h8z"/>
        <path id="10" class="fil2" d="M452 64h-8c-1 0-3-1-4-1-2 0-3 0-4-1l14-60c3 0 6-1 9-1h8c3 0 6 0 8 1 3 0 5 1 7 2s3 3 4 4c1 2 2 4 2 7s-1 7-3 9c-3 3-6 5-9 7 2 1 4 2 6 4 1 2 2 4 2 7 0 4-1 8-2 11-2 2-4 5-7 6-3 2-6 3-10 4s-8 1-13 1zm-1-30-5 22c1 1 2 1 3 1h5c2 0 5 0 7-1 3 0 5-1 7-2s4-2 5-4c2-2 2-4 2-7s-1-5-3-6c-2-2-5-3-10-3h-11zm2-6h8c2 0 4 0 6-1 3 0 4-1 6-2 2 0 3-2 4-3 1-2 2-4 2-6 0-3-1-5-3-6-3-1-6-2-11-2h-4c-2 0-3 0-3 1l-5 19z"/>
    </g>
</svg>
